<?xml version="1.0" encoding="UTF-8" standalone="no"?>
<!DOCTYPE svg PUBLIC "-//W3C//DTD SVG 1.1//EN"
 "http://www.w3.org/Graphics/SVG/1.1/DTD/svg11.dtd">
<!-- Generated by graphviz version 8.1.0 (20230707.0739)
 -->
<!-- Title: dependency&#45;cruiser output Pages: 1 -->
<svg width="318pt" height="172pt"
 viewBox="0.00 0.00 317.75 172.00" xmlns="http://www.w3.org/2000/svg" xmlns:xlink="http://www.w3.org/1999/xlink">
<g id="graph0" class="graph" transform="scale(1 1) rotate(0) translate(4 168)">
<title>dependency&#45;cruiser output</title>
<polygon fill="white" stroke="none" points="-4,4 -4,-168 313.75,-168 313.75,4 -4,4"/>
<g id="clust1" class="cluster">
<title>cluster_js</title>
<path fill="#ffffff" stroke="black" stroke-width="2" d="M20,-8C20,-8 289.75,-8 289.75,-8 295.75,-8 301.75,-14 301.75,-20 301.75,-20 301.75,-144 301.75,-144 301.75,-150 295.75,-156 289.75,-156 289.75,-156 20,-156 20,-156 14,-156 8,-150 8,-144 8,-144 8,-20 8,-20 8,-14 14,-8 20,-8"/>
<text text-anchor="middle" x="154.88" y="-143.45" font-family="Helvetica,sans-Serif" font-weight="bold" font-size="9.00">js</text>
</g>
<!-- js/airportSearch.js -->
<g id="node1" class="node">
<title>js/airportSearch.js</title>
<g id="a_node1"><a xlink:href="js/airportSearch.js" xlink:title="airportSearch.js">
<path fill="#ffffcc" stroke="black" d="M211.33,-87.62C211.33,-87.62 142.92,-87.62 142.92,-87.62 139.71,-87.62 136.5,-84.42 136.5,-81.21 136.5,-81.21 136.5,-74.79 136.5,-74.79 136.5,-71.58 139.71,-68.38 142.92,-68.38 142.92,-68.38 211.33,-68.38 211.33,-68.38 214.54,-68.38 217.75,-71.58 217.75,-74.79 217.75,-74.79 217.75,-81.21 217.75,-81.21 217.75,-84.42 214.54,-87.62 211.33,-87.62"/>
<text text-anchor="start" x="144.5" y="-75.08" font-family="Helvetica,sans-Serif" font-size="9.00">airportSearch.js</text>
</a>
</g>
</g>
<!-- js/main.js -->
<g id="node2" class="node">
<title>js/main.js</title>
<g id="a_node2"><a xlink:href="js/main.js" xlink:title="main.js">
<path fill="#ffffcc" stroke="black" d="M287.33,-87.62C287.33,-87.62 246.17,-87.62 246.17,-87.62 242.96,-87.62 239.75,-84.42 239.75,-81.21 239.75,-81.21 239.75,-74.79 239.75,-74.79 239.75,-71.58 242.96,-68.38 246.17,-68.38 246.17,-68.38 287.33,-68.38 287.33,-68.38 290.54,-68.38 293.75,-71.58 293.75,-74.79 293.75,-74.79 293.75,-81.21 293.75,-81.21 293.75,-84.42 290.54,-87.62 287.33,-87.62"/>
<text text-anchor="start" x="251.38" y="-75.08" font-family="Helvetica,sans-Serif" font-size="9.00">main.js</text>
</a>
</g>
</g>
<!-- js/airportSearch.js&#45;&gt;js/main.js -->
<g id="edge1" class="edge">
<title>js/airportSearch.js&#45;&gt;js/main.js</title>
<path fill="none" stroke="#000000" stroke-width="2" stroke-opacity="0.200000" d="M218.09,-78C222.27,-78 226.49,-78 230.6,-78"/>
<polygon fill="#000000" fill-opacity="0.200000" stroke="#000000" stroke-width="2" stroke-opacity="0.200000" points="230.39,-80.1 236.39,-78 230.39,-75.9 230.39,-80.1"/>
</g>
<!-- js/collapsible.js -->
<g id="node3" class="node">
<title>js/collapsible.js</title>
<g id="a_node3"><a xlink:href="js/collapsible.js" xlink:title="collapsible.js">
<path fill="#ccffcc" stroke="black" d="M94.21,-128.62C94.21,-128.62 36.29,-128.62 36.29,-128.62 33.08,-128.62 29.88,-125.42 29.88,-122.21 29.88,-122.21 29.88,-115.79 29.88,-115.79 29.88,-112.58 33.08,-109.38 36.29,-109.38 36.29,-109.38 94.21,-109.38 94.21,-109.38 97.42,-109.38 100.62,-112.58 100.62,-115.79 100.62,-115.79 100.62,-122.21 100.62,-122.21 100.62,-125.42 97.42,-128.62 94.21,-128.62"/>
<text text-anchor="start" x="37.88" y="-116.08" font-family="Helvetica,sans-Serif" font-size="9.00">collapsible.js</text>
</a>
</g>
</g>
<!-- js/dropdown.js -->
<g id="node4" class="node">
<title>js/dropdown.js</title>
<g id="a_node4"><a xlink:href="js/dropdown.js" xlink:title="dropdown.js">
<path fill="#ffffcc" stroke="black" d="M92.33,-97.62C92.33,-97.62 38.17,-97.62 38.17,-97.62 34.96,-97.62 31.75,-94.42 31.75,-91.21 31.75,-91.21 31.75,-84.79 31.75,-84.79 31.75,-81.58 34.96,-78.38 38.17,-78.38 38.17,-78.38 92.33,-78.38 92.33,-78.38 95.54,-78.38 98.75,-81.58 98.75,-84.79 98.75,-84.79 98.75,-91.21 98.75,-91.21 98.75,-94.42 95.54,-97.62 92.33,-97.62"/>
<text text-anchor="start" x="39.75" y="-85.08" font-family="Helvetica,sans-Serif" font-size="9.00">dropdown.js</text>
</a>
</g>
</g>
<!-- js/dropdown.js&#45;&gt;js/airportSearch.js -->
<g id="edge2" class="edge">
<title>js/dropdown.js&#45;&gt;js/airportSearch.js</title>
<path fill="none" stroke="#000000" stroke-width="2" stroke-opacity="0.200000" d="M99.22,-85C108.12,-84.19 117.95,-83.29 127.52,-82.42"/>
<polygon fill="#000000" fill-opacity="0.200000" stroke="#000000" stroke-width="2" stroke-opacity="0.200000" points="127.41,-84.27 133.2,-81.63 127.03,-80.09 127.41,-84.27"/>
</g>
<!-- js/dropdown.js&#45;&gt;js/main.js -->
<g id="edge3" class="edge">
<title>js/dropdown.js&#45;&gt;js/main.js</title>
<path fill="none" stroke="#000000" stroke-width="2" stroke-opacity="0.200000" d="M99.18,-93.63C131.87,-98.18 183.25,-102.58 226.75,-94 230.21,-93.32 233.74,-92.33 237.2,-91.17"/>
<polygon fill="#000000" fill-opacity="0.200000" stroke="#000000" stroke-width="2" stroke-opacity="0.200000" points="238.7,-93.1 243.57,-89.02 237.22,-89.17 238.7,-93.1"/>
</g>
<!-- js/locationPair.js -->
<g id="node5" class="node">
<title>js/locationPair.js</title>
<g id="a_node5"><a xlink:href="js/locationPair.js" xlink:title="locationPair.js">
<path fill="#ffffcc" stroke="black" d="M96.08,-66.62C96.08,-66.62 34.42,-66.62 34.42,-66.62 31.21,-66.62 28,-63.42 28,-60.21 28,-60.21 28,-53.79 28,-53.79 28,-50.58 31.21,-47.38 34.42,-47.38 34.42,-47.38 96.08,-47.38 96.08,-47.38 99.29,-47.38 102.5,-50.58 102.5,-53.79 102.5,-53.79 102.5,-60.21 102.5,-60.21 102.5,-63.42 99.29,-66.62 96.08,-66.62"/>
<text text-anchor="start" x="36" y="-54.08" font-family="Helvetica,sans-Serif" font-size="9.00">locationPair.js</text>
</a>
</g>
</g>
<!-- js/locationPair.js&#45;&gt;js/airportSearch.js -->
<g id="edge4" class="edge">
<title>js/locationPair.js&#45;&gt;js/airportSearch.js</title>
<path fill="none" stroke="#000000" stroke-width="2" stroke-opacity="0.200000" d="M102.84,-63.99C110.81,-65.52 119.36,-67.15 127.7,-68.75"/>
<polygon fill="#000000" fill-opacity="0.200000" stroke="#000000" stroke-width="2" stroke-opacity="0.200000" points="128.01,-71.32 134.3,-70.39 128.8,-67.2 128.01,-71.32"/>
</g>
<!-- js/locationPair.js&#45;&gt;js/main.js -->
<g id="edge6" class="edge">
<title>js/locationPair.js&#45;&gt;js/main.js</title>
<path fill="none" stroke="#000000" stroke-width="2" stroke-opacity="0.200000" d="M102.71,-54.47C135.53,-53.05 184.9,-53.07 226.75,-62 230.12,-62.72 233.56,-63.71 236.94,-64.86"/>
<polygon fill="#000000" fill-opacity="0.200000" stroke="#000000" stroke-width="2" stroke-opacity="0.200000" points="236.78,-66.79 243.14,-66.94 238.26,-62.86 236.78,-66.79"/>
</g>
<!-- js/locationPairClass.js -->
<g id="node6" class="node">
<title>js/locationPairClass.js</title>
<g id="a_node6"><a xlink:href="js/locationPairClass.js" xlink:title="locationPairClass.js">
<path fill="#ffffcc" stroke="black" d="M220.33,-39.62C220.33,-39.62 133.92,-39.62 133.92,-39.62 130.71,-39.62 127.5,-36.42 127.5,-33.21 127.5,-33.21 127.5,-26.79 127.5,-26.79 127.5,-23.58 130.71,-20.38 133.92,-20.38 133.92,-20.38 220.33,-20.38 220.33,-20.38 223.54,-20.38 226.75,-23.58 226.75,-26.79 226.75,-26.79 226.75,-33.21 226.75,-33.21 226.75,-36.42 223.54,-39.62 220.33,-39.62"/>
<text text-anchor="start" x="135.5" y="-27.07" font-family="Helvetica,sans-Serif" font-size="9.00">locationPairClass.js</text>
</a>
</g>
</g>
<!-- js/locationPair.js&#45;&gt;js/locationPairClass.js -->
<g id="edge5" class="edge">
<title>js/locationPair.js&#45;&gt;js/locationPairClass.js</title>
<path fill="none" stroke="#000000" stroke-width="2" stroke-opacity="0.200000" d="M102.84,-48.01C110.45,-46.14 118.59,-44.14 126.58,-42.18"/>
<polygon fill="#000000" fill-opacity="0.200000" stroke="#000000" stroke-width="2" stroke-opacity="0.200000" points="127.83,-43.54 133.15,-40.07 126.82,-39.46 127.83,-43.54"/>
</g>
<!-- js/suggestion_pairs.js -->
<g id="node7" class="node">
<title>js/suggestion_pairs.js</title>
<g id="a_node7"><a xlink:href="js/suggestion_pairs.js" xlink:title="suggestion_pairs.js">
<path fill="#ffffcc" stroke="black" d="M108.08,-35.62C108.08,-35.62 22.42,-35.62 22.42,-35.62 19.21,-35.62 16,-32.42 16,-29.21 16,-29.21 16,-22.79 16,-22.79 16,-19.58 19.21,-16.38 22.42,-16.38 22.42,-16.38 108.08,-16.38 108.08,-16.38 111.29,-16.38 114.5,-19.58 114.5,-22.79 114.5,-22.79 114.5,-29.21 114.5,-29.21 114.5,-32.42 111.29,-35.62 108.08,-35.62"/>
<text text-anchor="start" x="24" y="-23.07" font-family="Helvetica,sans-Serif" font-size="9.00">suggestion_pairs.js</text>
</a>
</g>
</g>
<!-- js/suggestion_pairs.js&#45;&gt;js/locationPairClass.js -->
<g id="edge7" class="edge">
<title>js/suggestion_pairs.js&#45;&gt;js/locationPairClass.js</title>
<path fill="none" stroke="#000000" stroke-width="2" stroke-opacity="0.200000" d="M114.76,-27.77C115.93,-27.81 117.09,-27.85 118.26,-27.89"/>
<polygon fill="#000000" fill-opacity="0.200000" stroke="#000000" stroke-width="2" stroke-opacity="0.200000" points="118.16,-30.1 124.23,-28.22 118.31,-25.9 118.16,-30.1"/>
</g>
</g>
</svg>
