<?xml version="1.0" encoding="UTF-8" standalone="no"?>
<!DOCTYPE svg PUBLIC "-//W3C//DTD SVG 1.1//EN"
 "http://www.w3.org/Graphics/SVG/1.1/DTD/svg11.dtd">
<!-- Generated by graphviz version 8.1.0 (20230707.0739)
 -->
<!-- Title: G Pages: 1 -->
<svg width="591pt" height="307pt"
 viewBox="0.00 0.00 590.70 306.70" xmlns="http://www.w3.org/2000/svg" xmlns:xlink="http://www.w3.org/1999/xlink">
<g id="graph0" class="graph" transform="scale(1 1) rotate(0) translate(21.6 285.1)">
<title>G</title>
<polygon fill="#111111" stroke="none" points="-21.6,21.6 -21.6,-285.1 569.1,-285.1 569.1,21.6 -21.6,21.6"/>
<!-- airportSearch.js -->
<g id="node1" class="node">
<title>airportSearch.js</title>
<path fill="none" stroke="#c6c5fe" d="M369.21,-106.5C369.21,-106.5 270.54,-106.5 270.54,-106.5 266.46,-106.5 262.38,-102.42 262.38,-98.33 262.38,-98.33 262.38,-90.17 262.38,-90.17 262.38,-86.08 266.46,-82 270.54,-82 270.54,-82 369.21,-82 369.21,-82 373.29,-82 377.38,-86.08 377.38,-90.17 377.38,-90.17 377.38,-98.33 377.38,-98.33 377.38,-102.42 373.29,-106.5 369.21,-106.5"/>
<text text-anchor="middle" x="319.88" y="-89.2" font-family="Arial" font-size="14.00" fill="#c6c5fe">airportSearch.js</text>
</g>
<!-- main.js -->
<g id="node2" class="node">
<title>main.js</title>
<path fill="none" stroke="#cfffac" d="M508.58,-106.5C508.58,-106.5 464.67,-106.5 464.67,-106.5 460.58,-106.5 456.5,-102.42 456.5,-98.33 456.5,-98.33 456.5,-90.17 456.5,-90.17 456.5,-86.08 460.58,-82 464.67,-82 464.67,-82 508.58,-82 508.58,-82 512.67,-82 516.75,-86.08 516.75,-90.17 516.75,-90.17 516.75,-98.33 516.75,-98.33 516.75,-102.42 512.67,-106.5 508.58,-106.5"/>
<text text-anchor="middle" x="486.62" y="-89.2" font-family="Arial" font-size="14.00" fill="#cfffac">main.js</text>
</g>
<!-- airportSearch.js&#45;&gt;main.js -->
<g id="edge1" class="edge">
<title>airportSearch.js&#45;&gt;main.js</title>
<path fill="none" stroke="#757575" d="M377.57,-94.25C399.88,-94.25 424.97,-94.25 445.36,-94.25"/>
<polygon fill="#757575" stroke="#757575" points="445.15,-97.75 455.15,-94.25 445.15,-90.75 445.15,-97.75"/>
</g>
<!-- collapsible.js -->
<g id="node3" class="node">
<title>collapsible.js</title>
<path fill="none" stroke="#cfffac" d="M147.71,-174.5C147.71,-174.5 66.29,-174.5 66.29,-174.5 62.21,-174.5 58.12,-170.42 58.12,-166.33 58.12,-166.33 58.12,-158.17 58.12,-158.17 58.12,-154.08 62.21,-150 66.29,-150 66.29,-150 147.71,-150 147.71,-150 151.79,-150 155.88,-154.08 155.88,-158.17 155.88,-158.17 155.88,-166.33 155.88,-166.33 155.88,-170.42 151.79,-174.5 147.71,-174.5"/>
<text text-anchor="middle" x="107" y="-157.2" font-family="Arial" font-size="14.00" fill="#cfffac">collapsible.js</text>
</g>
<!-- dropdown.js -->
<g id="node4" class="node">
<title>dropdown.js</title>
<path fill="none" stroke="#c6c5fe" d="M145.46,-124.5C145.46,-124.5 68.54,-124.5 68.54,-124.5 64.46,-124.5 60.38,-120.42 60.38,-116.33 60.38,-116.33 60.38,-108.17 60.38,-108.17 60.38,-104.08 64.46,-100 68.54,-100 68.54,-100 145.46,-100 145.46,-100 149.54,-100 153.62,-104.08 153.62,-108.17 153.62,-108.17 153.62,-116.33 153.62,-116.33 153.62,-120.42 149.54,-124.5 145.46,-124.5"/>
<text text-anchor="middle" x="107" y="-107.2" font-family="Arial" font-size="14.00" fill="#c6c5fe">dropdown.js</text>
</g>
<!-- dropdown.js&#45;&gt;airportSearch.js -->
<g id="edge2" class="edge">
<title>dropdown.js&#45;&gt;airportSearch.js</title>
<path fill="none" stroke="#757575" d="M154.02,-108.32C182.54,-105.89 219.69,-102.72 251.49,-100"/>
<polygon fill="#757575" stroke="#757575" points="251.39,-103.44 261.05,-99.1 250.79,-96.46 251.39,-103.44"/>
</g>
<!-- dropdown.js&#45;&gt;main.js -->
<g id="edge3" class="edge">
<title>dropdown.js&#45;&gt;main.js</title>
<path fill="none" stroke="#757575" d="M154.04,-116.07C209.96,-119.94 307.07,-124.2 389.75,-115.25 408.41,-113.23 428.76,-109.06 445.89,-104.97"/>
<polygon fill="#757575" stroke="#757575" points="446.23,-108.24 455.1,-102.45 444.55,-101.45 446.23,-108.24"/>
</g>
<!-- locationPair.js -->
<g id="node5" class="node">
<title>locationPair.js</title>
<path fill="none" stroke="#c6c5fe" d="M150.71,-67.5C150.71,-67.5 63.29,-67.5 63.29,-67.5 59.21,-67.5 55.12,-63.42 55.12,-59.33 55.12,-59.33 55.12,-51.17 55.12,-51.17 55.12,-47.08 59.21,-43 63.29,-43 63.29,-43 150.71,-43 150.71,-43 154.79,-43 158.88,-47.08 158.88,-51.17 158.88,-51.17 158.88,-59.33 158.88,-59.33 158.88,-63.42 154.79,-67.5 150.71,-67.5"/>
<text text-anchor="middle" x="107" y="-50.2" font-family="Arial" font-size="14.00" fill="#c6c5fe">locationPair.js</text>
</g>
<!-- locationPair.js&#45;&gt;airportSearch.js -->
<g id="edge4" class="edge">
<title>locationPair.js&#45;&gt;airportSearch.js</title>
<path fill="none" stroke="#757575" d="M159.32,-64.74C187,-69.86 221.52,-76.25 251.36,-81.76"/>
<polygon fill="#757575" stroke="#757575" points="250.66,-85.38 261.13,-83.75 251.93,-78.49 250.66,-85.38"/>
</g>
<!-- locationPair.js&#45;&gt;main.js -->
<g id="edge6" class="edge">
<title>locationPair.js&#45;&gt;main.js</title>
<path fill="none" stroke="#757575" d="M159.14,-56.19C215.77,-57.77 309.66,-61.99 389.75,-73.25 408.33,-75.86 428.67,-80.12 445.82,-84.11"/>
<polygon fill="#757575" stroke="#757575" points="444.5,-87.63 455.04,-86.55 446.12,-80.82 444.5,-87.63"/>
</g>
<!-- locationPairClass.js -->
<g id="node6" class="node">
<title>locationPairClass.js</title>
<path fill="none" stroke="#cfffac" d="M381.58,-25.5C381.58,-25.5 258.17,-25.5 258.17,-25.5 254.08,-25.5 250,-21.42 250,-17.33 250,-17.33 250,-9.17 250,-9.17 250,-5.08 254.08,-1 258.17,-1 258.17,-1 381.58,-1 381.58,-1 385.67,-1 389.75,-5.08 389.75,-9.17 389.75,-9.17 389.75,-17.33 389.75,-17.33 389.75,-21.42 385.67,-25.5 381.58,-25.5"/>
<text text-anchor="middle" x="319.88" y="-8.2" font-family="Arial" font-size="14.00" fill="#cfffac">locationPairClass.js</text>
</g>
<!-- locationPair.js&#45;&gt;locationPairClass.js -->
<g id="edge5" class="edge">
<title>locationPair.js&#45;&gt;locationPairClass.js</title>
<path fill="none" stroke="#757575" d="M159.32,-45.03C184.94,-39.93 216.41,-33.66 244.61,-28.04"/>
<polygon fill="#757575" stroke="#757575" points="245.11,-31.31 254.24,-25.92 243.75,-24.45 245.11,-31.31"/>
</g>
<!-- mapProjection.js -->
<g id="node7" class="node">
<title>mapProjection.js</title>
<path fill="none" stroke="#cfffac" d="M539.33,-223.5C539.33,-223.5 433.92,-223.5 433.92,-223.5 429.83,-223.5 425.75,-219.42 425.75,-215.33 425.75,-215.33 425.75,-207.17 425.75,-207.17 425.75,-203.08 429.83,-199 433.92,-199 433.92,-199 539.33,-199 539.33,-199 543.42,-199 547.5,-203.08 547.5,-207.17 547.5,-207.17 547.5,-215.33 547.5,-215.33 547.5,-219.42 543.42,-223.5 539.33,-223.5"/>
<text text-anchor="middle" x="486.62" y="-206.2" font-family="Arial" font-size="14.00" fill="#cfffac">mapProjection.js</text>
</g>
<!-- mapUtilities.js -->
<g id="node8" class="node">
<title>mapUtilities.js</title>
<path fill="none" stroke="#c6c5fe" d="M363.21,-203.5C363.21,-203.5 276.54,-203.5 276.54,-203.5 272.46,-203.5 268.38,-199.42 268.38,-195.33 268.38,-195.33 268.38,-187.17 268.38,-187.17 268.38,-183.08 272.46,-179 276.54,-179 276.54,-179 363.21,-179 363.21,-179 367.29,-179 371.38,-183.08 371.38,-187.17 371.38,-187.17 371.38,-195.33 371.38,-195.33 371.38,-199.42 367.29,-203.5 363.21,-203.5"/>
<text text-anchor="middle" x="319.88" y="-186.2" font-family="Arial" font-size="14.00" fill="#c6c5fe">mapUtilities.js</text>
</g>
<!-- mapUtilities.js&#45;&gt;mapProjection.js -->
<g id="edge7" class="edge">
<title>mapUtilities.js&#45;&gt;mapProjection.js</title>
<path fill="none" stroke="#757575" d="M371.65,-197.41C385.21,-199.06 400.12,-200.87 414.56,-202.62"/>
<polygon fill="#757575" stroke="#757575" points="414.12,-206.22 424.47,-203.95 414.97,-199.27 414.12,-206.22"/>
</g>
<!-- map_animations_along_lines.js -->
<g id="node9" class="node">
<title>map_animations_along_lines.js</title>
<path fill="none" stroke="#c6c5fe" d="M205.83,-220.5C205.83,-220.5 8.17,-220.5 8.17,-220.5 4.08,-220.5 0,-216.42 0,-212.33 0,-212.33 0,-204.17 0,-204.17 0,-200.08 4.08,-196 8.17,-196 8.17,-196 205.83,-196 205.83,-196 209.92,-196 214,-200.08 214,-204.17 214,-204.17 214,-212.33 214,-212.33 214,-216.42 209.92,-220.5 205.83,-220.5"/>
<text text-anchor="middle" x="107" y="-203.2" font-family="Arial" font-size="14.00" fill="#c6c5fe">map_animations_along_lines.js</text>
</g>
<!-- map_animations_along_lines.js&#45;&gt;mapProjection.js -->
<g id="edge8" class="edge">
<title>map_animations_along_lines.js&#45;&gt;mapProjection.js</title>
<path fill="none" stroke="#757575" d="M214.22,-211.57C226.29,-211.85 238.41,-212.09 250,-212.25 312.1,-213.12 327.64,-212.57 389.75,-212.25 397.74,-212.21 406.1,-212.15 414.41,-212.08"/>
<polygon fill="#757575" stroke="#757575" points="414.31,-215.57 424.28,-211.98 414.24,-208.57 414.31,-215.57"/>
</g>
<!-- map_animations_along_lines.js&#45;&gt;mapUtilities.js -->
<g id="edge9" class="edge">
<title>map_animations_along_lines.js&#45;&gt;mapUtilities.js</title>
<path fill="none" stroke="#757575" d="M214.36,-199.68C229.14,-198.48 243.9,-197.29 257.47,-196.2"/>
<polygon fill="#757575" stroke="#757575" points="257.39,-199.64 267.08,-195.35 256.83,-192.66 257.39,-199.64"/>
</g>
<!-- suggestion_pairs.js -->
<g id="node10" class="node">
<title>suggestion_pairs.js</title>
<path fill="none" stroke="#c6c5fe" d="M168.33,-24.5C168.33,-24.5 45.67,-24.5 45.67,-24.5 41.58,-24.5 37.5,-20.42 37.5,-16.33 37.5,-16.33 37.5,-8.17 37.5,-8.17 37.5,-4.08 41.58,0 45.67,0 45.67,0 168.33,0 168.33,0 172.42,0 176.5,-4.08 176.5,-8.17 176.5,-8.17 176.5,-16.33 176.5,-16.33 176.5,-20.42 172.42,-24.5 168.33,-24.5"/>
<text text-anchor="middle" x="107" y="-7.2" font-family="Arial" font-size="14.00" fill="#c6c5fe">suggestion_pairs.js</text>
</g>
<!-- suggestion_pairs.js&#45;&gt;locationPairClass.js -->
<g id="edge10" class="edge">
<title>suggestion_pairs.js&#45;&gt;locationPairClass.js</title>
<path fill="none" stroke="#757575" d="M176.76,-12.58C196.62,-12.67 218.47,-12.77 238.96,-12.87"/>
<polygon fill="#757575" stroke="#757575" points="238.83,-16.38 248.85,-12.92 238.87,-9.38 238.83,-16.38"/>
</g>
<!-- tabs.js -->
<g id="node11" class="node">
<title>tabs.js</title>
<path fill="none" stroke="#cfffac" d="M127.46,-263.5C127.46,-263.5 86.54,-263.5 86.54,-263.5 82.46,-263.5 78.38,-259.42 78.38,-255.33 78.38,-255.33 78.38,-247.17 78.38,-247.17 78.38,-243.08 82.46,-239 86.54,-239 86.54,-239 127.46,-239 127.46,-239 131.54,-239 135.62,-243.08 135.62,-247.17 135.62,-247.17 135.62,-255.33 135.62,-255.33 135.62,-259.42 131.54,-263.5 127.46,-263.5"/>
<text text-anchor="middle" x="107" y="-246.2" font-family="Arial" font-size="14.00" fill="#cfffac">tabs.js</text>
</g>
</g>
</svg>
